<svg xmlns="http://www.w3.org/2000/svg" version="1.1" xmlns:xlink="http://www.w3.org/1999/xlink" xmlns:svgjs="http://svgjs.dev/svgjs" width="1500" height="1500" viewBox="0 0 1500 1500"><rect width="1500" height="1500" fill="#fee869"></rect><g transform="matrix(0.6666666666666666,0,0,0.6666666666666666,249.39178351511788,313.59677419354836)"><svg viewBox="0 0 285 248" data-background-color="#fee869" preserveAspectRatio="xMidYMid meet" height="1305" width="1500" xmlns="http://www.w3.org/2000/svg" xmlns:xlink="http://www.w3.org/1999/xlink"><g id="tight-bounds" transform="matrix(1,0,0,1,0.17334169819139333,0.4000000000000057)"><svg viewBox="0 0 284.6533166036172 247.2" height="247.2" width="284.6533166036172"><g><svg viewBox="0 0 395.52 343.4793775340033" height="247.2" width="284.6533166036172"><g transform="matrix(1,0,0,1,0,207.0377804791714)"><svg viewBox="0 0 395.52 136.44159705483187" height="136.44159705483187" width="395.52"><g id="textblocktransform"><svg viewBox="0 0 395.52 136.44159705483187" height="136.44159705483187" width="395.52" id="textblock"><g><svg viewBox="0 0 395.52 78.26078614257162" height="78.26078614257162" width="395.52"><g transform="matrix(1,0,0,1,0,0)"><svg width="395.52" viewBox="3 -35.5 183.22 36.26" height="78.26078614257162" data-palette-color="#222222"><g class="wordmark-text-0" data-fill-palette-color="primary" id="text-0"><path d="M37.99-25L37.99 0 31.01 0 31.01-25Q31.01-25.73 30.73-26.37 30.44-27 29.97-27.48 29.49-27.95 28.86-28.22 28.22-28.49 27.49-28.49L27.49-28.49Q26.76-28.49 26.12-28.22 25.49-27.95 25.01-27.48 24.54-27 24.27-26.37 24-25.73 24-25L24-25 24 0 16.99 0 16.99-25Q16.99-25.73 16.72-26.37 16.46-27 15.98-27.48 15.5-27.95 14.87-28.22 14.23-28.49 13.5-28.49L13.5-28.49Q12.77-28.49 12.13-28.22 11.5-27.95 11.02-27.48 10.55-27 10.28-26.37 10.01-25.73 10.01-25L10.01-25 10.01 0 3 0 3-25Q3-27.17 3.82-29.09 4.64-31.01 6.07-32.43 7.5-33.86 9.41-34.68 11.33-35.5 13.5-35.5L13.5-35.5Q15.45-35.5 17.26-34.8 19.07-34.11 20.51-32.79L20.51-32.79Q21.95-34.11 23.74-34.8 25.54-35.5 27.49-35.5L27.49-35.5Q29.66-35.5 31.58-34.68 33.5-33.86 34.92-32.43 36.35-31.01 37.17-29.09 37.99-27.17 37.99-25L37.99-25ZM68.23-7.01L68.23 0 44.24 0 44.24-35.01 68.23-35.01 68.23-28 51.24-28 51.24-21 62.74-21 62.74-13.99 51.24-13.99 51.24-7.01 68.23-7.01ZM101.19-17.5L101.19-17.5Q101.19-15.09 100.57-12.85 99.95-10.62 98.8-8.68 97.65-6.74 96.06-5.14 94.48-3.54 92.52-2.39 90.57-1.25 88.34-0.62 86.1 0 83.69 0L83.69 0 73.14 0 73.14-35.01 83.69-35.01Q86.1-35.01 88.34-34.39 90.57-33.76 92.52-32.62 94.48-31.47 96.06-29.87 97.65-28.27 98.8-26.33 99.95-24.39 100.57-22.16 101.19-19.92 101.19-17.5ZM94.18-17.5L94.18-17.5Q94.18-19.68 93.37-21.58 92.55-23.49 91.12-24.91 89.69-26.34 87.78-27.17 85.86-28 83.69-28L83.69-28 80.2-28 80.2-7.01 83.69-7.01Q85.86-7.01 87.78-7.82 89.69-8.64 91.12-10.07 92.55-11.5 93.37-13.42 94.18-15.33 94.18-17.5ZM112.83-35.01L112.83 0 105.83 0 105.83-35.01 112.83-35.01ZM133.34-28L126.33-28 126.33-13.99 133.34-13.99Q134.78-13.99 136.05-14.54 137.32-15.09 138.27-16.04 139.22-16.99 139.77-18.27 140.32-19.56 140.32-21L140.32-21Q140.32-22.44 139.77-23.72 139.22-25 138.27-25.95 137.32-26.9 136.05-27.45 134.78-28 133.34-28L133.34-28ZM126.33-7.01L126.33 0 119.33 0 119.33-35.01 133.34-35.01Q135.27-35.01 137.05-34.51 138.83-34.01 140.38-33.09 141.93-32.18 143.22-30.9 144.5-29.61 145.41-28.05 146.33-26.49 146.83-24.71 147.33-22.92 147.33-21L147.33-21Q147.33-19.19 146.88-17.48 146.43-15.77 145.58-14.23 144.74-12.7 143.52-11.4 142.3-10.11 140.79-9.16L140.79-9.16 144.67 0 137.22 0 134.17-7.06 126.33-7.01ZM186.22-17.36L186.22-17.36Q186.22-14.87 185.57-12.56 184.92-10.25 183.75-8.24 182.58-6.23 180.92-4.57 179.26-2.91 177.26-1.72 175.26-0.54 172.94 0.11 170.62 0.76 168.13 0.76L168.13 0.76Q165.64 0.76 163.33 0.11 161.02-0.54 159.01-1.72 156.99-2.91 155.33-4.57 153.67-6.23 152.49-8.24 151.31-10.25 150.66-12.56 150.01-14.87 150.01-17.36L150.01-17.36Q150.01-19.85 150.66-22.17 151.31-24.49 152.49-26.49 153.67-28.49 155.33-30.15 156.99-31.81 159.01-32.98 161.02-34.16 163.33-34.8 165.64-35.45 168.13-35.45L168.13-35.45Q170.62-35.45 172.94-34.8 175.26-34.16 177.26-32.98 179.26-31.81 180.92-30.15 182.58-28.49 183.75-26.49 184.92-24.49 185.57-22.17 186.22-19.85 186.22-17.36ZM179.26-17.36L179.26-17.36Q179.26-19.65 178.38-21.69 177.5-23.73 176-25.23 174.5-26.73 172.46-27.61 170.42-28.49 168.13-28.49L168.13-28.49Q165.81-28.49 163.78-27.61 161.76-26.73 160.24-25.23 158.73-23.73 157.85-21.69 156.97-19.65 156.97-17.36L156.97-17.36Q156.97-15.06 157.85-13.05 158.73-11.04 160.24-9.52 161.76-8.01 163.78-7.13 165.81-6.25 168.13-6.25L168.13-6.25Q170.42-6.25 172.46-7.13 174.5-8.01 176-9.52 177.5-11.04 178.38-13.05 179.26-15.06 179.26-17.36Z" fill="#222222" data-fill-palette-color="primary"></path></g></svg></g></svg></g><g transform="matrix(1,0,0,1,0,96.73627949196535)"><svg viewBox="0 0 395.52 39.70531756286652" height="39.70531756286652" width="395.52"><g transform="matrix(1,0,0,1,0,0)"><svg width="395.52" viewBox="2 -39.65 502.99 50.5" height="39.70531756286652" data-palette-color="#000000"><path d="M29.05-34.55L31.25 0 25.2 0 24.6-14.6Q24.3-22.6 24.3-26L24.3-26 24.35-28.6 19.6-3.8 13.6-3.8 8.65-28.65Q8.7-27.15 8.7-24.05L8.7-24.05Q8.7-18.8 8.5-14.4L8.5-14.4 7.95 0 2 0 4.2-34.55 12.2-34.55 16.7-10.2 20.9-34.55 29.05-34.55ZM36.2-34.55L53.35-34.55 52.7-29.8 42.55-29.8 42.55-19.9 51.4-19.9 51.4-15.2 42.55-15.2 42.55-4.8 53.35-4.8 53.35 0 36.2 0 36.2-34.55ZM70.65-37.7L76.8-37.05 76.8 0 71.35 0 71.05-3.05Q68.7 0.75 65 0.75L65 0.75Q60.9 0.75 58.72-2.93 56.55-6.6 56.55-13.2L56.55-13.2Q56.55-17.4 57.67-20.58 58.8-23.75 60.8-25.45 62.8-27.15 65.4-27.15L65.4-27.15Q68.6-27.15 70.65-24.5L70.65-24.5 70.65-37.7ZM66.75-3.9Q67.9-3.9 68.82-4.7 69.75-5.5 70.65-7L70.65-7 70.65-19.85Q69.05-22.55 67-22.55L67-22.55Q62.95-22.55 62.95-13.25L62.95-13.25Q62.95-8.2 63.95-6.05 64.95-3.9 66.75-3.9L66.75-3.9ZM82.49-26.45L88.64-26.45 88.64 0 82.49 0 82.49-26.45ZM85.54-39.65Q87.19-39.65 88.22-38.6 89.24-37.55 89.24-35.9L89.24-35.9Q89.24-34.3 88.22-33.25 87.19-32.2 85.54-32.2L85.54-32.2Q83.89-32.2 82.87-33.25 81.84-34.3 81.84-35.9L81.84-35.9Q81.84-37.55 82.87-38.6 83.89-39.65 85.54-39.65L85.54-39.65ZM111.24-6.4Q111.24-5.1 111.59-4.48 111.94-3.85 112.74-3.45L112.74-3.45 111.49 0.65Q109.44 0.4 108.22-0.45 106.99-1.3 106.39-3.05L106.39-3.05Q104.09 0.75 99.94 0.75L99.94 0.75Q96.64 0.75 94.69-1.48 92.74-3.7 92.74-7.4L92.74-7.4Q92.74-11.7 95.42-13.95 98.09-16.2 103.19-16.2L103.19-16.2 105.24-16.2 105.24-18.05Q105.24-20.55 104.37-21.58 103.49-22.6 101.54-22.6L101.54-22.6Q99.19-22.6 95.69-21.3L95.69-21.3 94.29-25.3Q96.29-26.2 98.44-26.68 100.59-27.15 102.54-27.15L102.54-27.15Q111.24-27.15 111.24-18.35L111.24-18.35 111.24-6.4ZM101.59-3.7Q103.99-3.7 105.24-7L105.24-7 105.24-12.55 103.79-12.55Q101.24-12.55 100.07-11.4 98.89-10.25 98.89-7.85L98.89-7.85Q98.89-5.8 99.59-4.75 100.29-3.7 101.59-3.7L101.59-3.7ZM134.74-34.55Q139.09-34.55 142.26-33.23 145.44-31.9 147.41-28.13 149.39-24.35 149.39-17.45L149.39-17.45Q149.39-7.7 145.51-3.85 141.64 0 135.39 0L135.39 0 127.04 0 127.04-34.55 134.74-34.55ZM135.69-29.8L133.39-29.8 133.39-4.75 135.74-4.75Q137.99-4.75 139.51-5.8 141.04-6.85 141.91-9.65 142.79-12.45 142.79-17.45L142.79-17.45Q142.79-22.55 141.86-25.25 140.94-27.95 139.41-28.88 137.89-29.8 135.69-29.8L135.69-29.8ZM154.13-34.55L160.48-34.55 160.48 0 154.13 0 154.13-34.55ZM188.83 0L181.98 0 175.88-13.95 175.28-13.95 172.83-13.95 172.83 0 166.48 0 166.48-34.55 174.63-34.55Q187.13-34.55 187.13-24.4L187.13-24.4Q187.13-21.25 185.73-18.82 184.33-16.4 181.53-15.15L181.53-15.15 188.83 0ZM174.93-18.55Q177.88-18.55 179.21-19.95 180.53-21.35 180.53-24.4L180.53-24.4Q180.53-27.25 179.16-28.58 177.78-29.9 174.63-29.9L174.63-29.9 172.83-29.9 172.83-18.55 174.93-18.55ZM210.73-13.85Q210.73-13.4 210.58-11.3L210.58-11.3 196.93-11.3Q197.13-7.2 198.35-5.58 199.58-3.95 201.83-3.95L201.83-3.95Q203.38-3.95 204.63-4.48 205.88-5 207.33-6.15L207.33-6.15 209.88-2.65Q206.38 0.75 201.48 0.75L201.48 0.75Q196.28 0.75 193.5-2.85 190.73-6.45 190.73-13L190.73-13Q190.73-19.55 193.38-23.35 196.03-27.15 200.88-27.15L200.88-27.15Q205.53-27.15 208.13-23.78 210.73-20.4 210.73-13.85L210.73-13.85ZM204.73-15.3L204.73-15.65Q204.73-19.4 203.83-21.13 202.93-22.85 200.93-22.85L200.93-22.85Q199.08-22.85 198.1-21.18 197.13-19.5 196.93-15.3L196.93-15.3 204.73-15.3ZM224.53-27.15Q226.68-27.15 228.43-26.43 230.18-25.7 231.78-24.15L231.78-24.15 229.13-20.65Q228.03-21.55 227.05-21.98 226.08-22.4 224.93-22.4L224.93-22.4Q222.68-22.4 221.53-20.28 220.38-18.15 220.38-13.1L220.38-13.1Q220.38-8.2 221.55-6.2 222.73-4.2 224.93-4.2L224.93-4.2Q226.03-4.2 226.93-4.6 227.83-5 229.03-5.85L229.03-5.85 231.78-2.3Q228.58 0.75 224.63 0.75L224.63 0.75Q219.53 0.75 216.7-2.73 213.88-6.2 213.88-13L213.88-13Q213.88-17.4 215.18-20.6 216.48-23.8 218.9-25.48 221.33-27.15 224.53-27.15L224.53-27.15ZM245.97-5L248.12-1.2Q245.67 0.75 242.37 0.75L242.37 0.75Q238.92 0.75 237.12-1.23 235.32-3.2 235.32-6.6L235.32-6.6 235.32-22 232.22-22 232.22-26.45 235.32-26.45 235.32-32.3 241.47-33.05 241.47-26.45 246.47-26.45 245.87-22 241.47-22 241.47-6.6Q241.47-4.2 243.52-4.2L243.52-4.2Q244.17-4.2 244.67-4.38 245.17-4.55 245.97-5L245.97-5ZM260.07-27.15Q265.07-27.15 267.85-23.65 270.62-20.15 270.62-13.25L270.62-13.25Q270.62-6.65 267.82-2.95 265.02 0.75 260.07 0.75L260.07 0.75Q255.12 0.75 252.32-2.88 249.52-6.5 249.52-13.25L249.52-13.25Q249.52-19.95 252.32-23.55 255.12-27.15 260.07-27.15L260.07-27.15ZM260.07-22.5Q257.92-22.5 256.92-20.38 255.92-18.25 255.92-13.25L255.92-13.25Q255.92-8.2 256.92-6.08 257.92-3.95 260.07-3.95L260.07-3.95Q262.22-3.95 263.22-6.08 264.22-8.2 264.22-13.25L264.22-13.25Q264.22-18.3 263.22-20.4 262.22-22.5 260.07-22.5L260.07-22.5ZM286.82-27.1Q287.97-27.1 288.87-26.75L288.87-26.75 287.87-20.85Q286.87-21.1 286.02-21.1L286.02-21.1Q284.12-21.1 283.02-19.45 281.92-17.8 281.32-14.55L281.32-14.55 281.32 0 275.17 0 275.17-26.45 280.52-26.45 280.97-21.85Q282.82-27.1 286.82-27.1L286.82-27.1ZM310.37-26.45L303.37 0.1Q302.07 4.9 299.17 7.65 296.27 10.4 291.42 10.85L291.42 10.85 290.72 6.5Q293.87 5.85 295.44 4.42 297.02 3 297.92 0L297.92 0 295.62 0 288.92-26.45 295.17-26.45 299.57-4.1 304.27-26.45 310.37-26.45ZM334.71-35.25Q340.81-35.25 344.11-30.8 347.41-26.35 347.41-17.3L347.41-17.3Q347.41-8.35 344.11-3.8 340.81 0.75 334.71 0.75L334.71 0.75Q328.66 0.75 325.34-3.75 322.01-8.25 322.01-17.25L322.01-17.25Q322.01-26.15 325.34-30.7 328.66-35.25 334.71-35.25L334.71-35.25ZM334.71-30.45Q331.66-30.45 330.19-27.4 328.71-24.35 328.71-17.25L328.71-17.25Q328.71-10.1 330.21-7.13 331.71-4.15 334.71-4.15L334.71-4.15Q337.81-4.15 339.29-7.1 340.76-10.05 340.76-17.3L340.76-17.3Q340.76-24.4 339.26-27.43 337.76-30.45 334.71-30.45L334.71-30.45ZM363.66-27.1Q364.81-27.1 365.71-26.75L365.71-26.75 364.71-20.85Q363.71-21.1 362.86-21.1L362.86-21.1Q360.96-21.1 359.86-19.45 358.76-17.8 358.16-14.55L358.16-14.55 358.16 0 352.01 0 352.01-26.45 357.36-26.45 357.81-21.85Q359.66-27.1 363.66-27.1L363.66-27.1ZM386.51-29.85L388.06-25.1Q387.01-24.6 385.53-24.4 384.06-24.2 381.86-24.2L381.86-24.2Q383.96-23.2 384.98-21.53 386.01-19.85 386.01-17.4L386.01-17.4Q386.01-13.4 383.56-10.95 381.11-8.5 376.91-8.5L376.91-8.5Q375.66-8.5 374.36-8.9L374.36-8.9Q373.46-8.15 373.46-6.85L373.46-6.85Q373.46-5.85 374.01-5.35 374.56-4.85 376.06-4.85L376.06-4.85 378.86-4.85Q382.86-4.85 385.21-2.78 387.56-0.7 387.56 2.5L387.56 2.5Q387.56 6.3 384.63 8.58 381.71 10.85 376.31 10.85L376.31 10.85Q370.61 10.85 368.33 8.75 366.06 6.65 366.06 2.6L366.06 2.6 371.51 2.6Q371.51 4.75 372.51 5.65 373.51 6.55 376.36 6.55L376.36 6.55Q379.11 6.55 380.26 5.6 381.41 4.65 381.41 2.9L381.41 2.9Q381.41 1.2 380.46 0.4 379.51-0.4 377.51-0.4L377.51-0.4 375.61-0.4Q371.81-0.4 370.06-1.75 368.31-3.1 368.31-5.45L368.31-5.45Q368.31-6.8 369.03-8.03 369.76-9.25 371.01-10.2L371.01-10.2Q368.96-11.5 368.01-13.3 367.06-15.1 367.06-17.7L367.06-17.7Q367.06-22.05 369.66-24.58 372.26-27.1 376.66-27.1L376.66-27.1Q379.91-27.1 382.03-27.8 384.16-28.5 386.51-29.85L386.51-29.85ZM376.66-23Q374.91-23 374.01-21.75 373.11-20.5 373.11-17.8L373.11-17.8Q373.11-15.25 374.01-13.88 374.91-12.5 376.61-12.5L376.61-12.5Q378.36-12.5 379.21-13.73 380.06-14.95 380.06-17.85L380.06-17.85Q380.06-20.55 379.23-21.78 378.41-23 376.66-23L376.66-23ZM407.7-6.4Q407.7-5.1 408.05-4.48 408.4-3.85 409.2-3.45L409.2-3.45 407.95 0.65Q405.9 0.4 404.68-0.45 403.45-1.3 402.85-3.05L402.85-3.05Q400.55 0.75 396.4 0.75L396.4 0.75Q393.1 0.75 391.15-1.48 389.2-3.7 389.2-7.4L389.2-7.4Q389.2-11.7 391.88-13.95 394.55-16.2 399.65-16.2L399.65-16.2 401.7-16.2 401.7-18.05Q401.7-20.55 400.83-21.58 399.95-22.6 398-22.6L398-22.6Q395.65-22.6 392.15-21.3L392.15-21.3 390.75-25.3Q392.75-26.2 394.9-26.68 397.05-27.15 399-27.15L399-27.15Q407.7-27.15 407.7-18.35L407.7-18.35 407.7-6.4ZM398.05-3.7Q400.45-3.7 401.7-7L401.7-7 401.7-12.55 400.25-12.55Q397.7-12.55 396.53-11.4 395.35-10.25 395.35-7.85L395.35-7.85Q395.35-5.8 396.05-4.75 396.75-3.7 398.05-3.7L398.05-3.7ZM425.85-27.15Q428.7-27.15 430.35-25.1 432-23.05 432-19.6L432-19.6 432 0 425.85 0 425.85-18.9Q425.85-20.8 425.33-21.63 424.8-22.45 423.8-22.45L423.8-22.45Q421.7-22.45 419.65-18.5L419.65-18.5 419.65 0 413.5 0 413.5-26.45 418.85-26.45 419.3-23Q420.65-25.1 422.18-26.13 423.7-27.15 425.85-27.15L425.85-27.15ZM437.55-26.45L443.7-26.45 443.7 0 437.55 0 437.55-26.45ZM440.6-39.65Q442.25-39.65 443.27-38.6 444.3-37.55 444.3-35.9L444.3-35.9Q444.3-34.3 443.27-33.25 442.25-32.2 440.6-32.2L440.6-32.2Q438.95-32.2 437.92-33.25 436.9-34.3 436.9-35.9L436.9-35.9Q436.9-37.55 437.92-38.6 438.95-39.65 440.6-39.65L440.6-39.65ZM448.1-26.45L464.35-26.45 464.35-22 453.8-4.85 464.55-4.85 464 0 447.2 0 447.2-4.45 457.75-21.6 448.1-21.6 448.1-26.45ZM486.99-13.85Q486.99-13.4 486.84-11.3L486.84-11.3 473.19-11.3Q473.39-7.2 474.62-5.58 475.84-3.95 478.09-3.95L478.09-3.95Q479.64-3.95 480.89-4.48 482.14-5 483.59-6.15L483.59-6.15 486.14-2.65Q482.64 0.75 477.74 0.75L477.74 0.75Q472.54 0.75 469.77-2.85 466.99-6.45 466.99-13L466.99-13Q466.99-19.55 469.64-23.35 472.29-27.15 477.14-27.15L477.14-27.15Q481.79-27.15 484.39-23.78 486.99-20.4 486.99-13.85L486.99-13.85ZM480.99-15.3L480.99-15.65Q480.99-19.4 480.09-21.13 479.19-22.85 477.19-22.85L477.19-22.85Q475.34-22.85 474.37-21.18 473.39-19.5 473.19-15.3L473.19-15.3 480.99-15.3ZM502.94-27.1Q504.09-27.1 504.99-26.75L504.99-26.75 503.99-20.85Q502.99-21.1 502.14-21.1L502.14-21.1Q500.24-21.1 499.14-19.45 498.04-17.8 497.44-14.55L497.44-14.55 497.44 0 491.29 0 491.29-26.45 496.64-26.45 497.09-21.85Q498.94-27.1 502.94-27.1L502.94-27.1Z" opacity="1" transform="matrix(1,0,0,1,0,0)" fill="#000000" class="slogan-text-1" data-fill-palette-color="secondary" id="text-1"></path></svg></g></svg></g></svg></g></svg></g><g transform="matrix(1,0,0,1,101.20133266214162,0)"><svg viewBox="0 0 193.11733467571673 188.56228712977767" height="188.56228712977767" width="193.11733467571673"><g><svg xmlns="http://www.w3.org/2000/svg" xmlns:xlink="http://www.w3.org/1999/xlink" version="1.1" x="0" y="0" viewBox="11.017823632605122 11.461749422187646 37.96369815853941 37.06825057781236" style="enable-background:new 0 0 60 60;" xml:space="preserve" height="188.56228712977767" width="193.11733467571673" class="icon-icon-0" data-fill-palette-color="accent" id="icon-0"><path d="M48.85 34.1L35.82 11.92A0.945 0.945 0 0 0 34.2 11.92L30 19.08 25.79 11.93A0.945 0.945 0 0 0 24.17 11.93L11.15 34.1C10.93 34.47 10.99 34.93 11.29 35.23L24.32 48.26C24.5 48.44 24.74 48.53 24.98 48.53S25.46 48.44 25.64 48.26L30 43.91 34.35 48.26C34.53 48.44 34.77 48.53 35.01 48.53S35.49 48.44 35.67 48.26L48.7 35.23C49.01 34.93 49.07 34.46 48.85 34.1M24.99 46.28L13.13 34.42 24.99 14.24 28.92 20.92 21.17 34.1C20.95 34.47 21.01 34.93 21.31 35.23L28.67 42.59zM30 22.77L36.85 34.42 30 41.27 23.15 34.42zM35.01 46.28L31.32 42.59 38.68 35.23C38.98 34.93 39.04 34.46 38.82 34.1L31.08 20.93 35.01 14.25 46.87 34.43z" fill="#222222" data-fill-palette-color="accent"></path></svg></g></svg></g><g></g></svg></g><defs></defs></svg><rect width="284.6533166036172" height="247.2" fill="none" stroke="none" visibility="hidden"></rect></g></svg></g></svg>